<svg xmlns="http://www.w3.org/2000/svg" viewBox="0 0 320 50" fill="#5b9aa9">
  <!-- N -->
  <path d="M0 8 L0 42 L6 42 L6 18 L24 42 L30 42 L30 8 L24 8 L24 32 L6 8 Z"/>
  <!-- A -->
  <path d="M45 42 L51 42 L54 34 L66 34 L69 42 L75 42 L60 8 Z M56 28 L60 16 L64 28 Z"/>
  <!-- V -->
  <path d="M85 8 L100 38 L115 8 L108 8 L100 28 L92 8 Z"/>
  <!-- I -->
  <rect x="125" y="8" width="6" height="34"/>
  <!-- S -->
  <path d="M145 14 Q145 8 152 8 L165 8 Q172 8 172 14 L172 18 L166 18 L166 14 Q166 12 164 12 L153 12 Q151 12 151 14 L151 22 Q151 24 153 24 L164 24 Q172 24 172 30 L172 36 Q172 42 165 42 L152 42 Q145 42 145 36 L145 32 L151 32 L151 36 Q151 38 153 38 L164 38 Q166 38 166 36 L166 30 Q166 28 164 28 L153 28 Q145 28 145 22 Z"/>
  <!-- O (propeller icon) -->
  <g transform="translate(180, 25)">
    <circle cx="15" cy="0" r="14" fill="none" stroke="#5b9aa9" stroke-width="3"/>
    <circle cx="15" cy="0" r="3" fill="none" stroke="#5b9aa9" stroke-width="2"/>
    <line x1="15" y1="-12" x2="15" y2="-4" stroke="#5b9aa9" stroke-width="2" stroke-linecap="round"/>
    <line x1="15" y1="4" x2="15" y2="12" stroke="#5b9aa9" stroke-width="2" stroke-linecap="round"/>
    <line x1="3" y1="0" x2="11" y2="0" stroke="#5b9aa9" stroke-width="2" stroke-linecap="round"/>
    <line x1="19" y1="0" x2="27" y2="0" stroke="#5b9aa9" stroke-width="2" stroke-linecap="round"/>
    <!-- Small waves under O -->
    <path d="M2 14 Q10 10 18 14 Q26 18 34 12" fill="none" stroke="#5b9aa9" stroke-width="2.5" stroke-linecap="round"/>
  </g>
  <!-- L -->
  <path d="M225 8 L225 42 L250 42 L250 36 L231 36 L231 8 Z"/>
</svg>
